<?xml version="1.0" encoding="UTF-8" standalone="no"?>
<!-- Created with Inkscape (http://www.inkscape.org/) -->

<svg
   xml:space="preserve"
   width="0.43307066in"
   height="0.4330709in"
   viewBox="0 0 0.43307066 0.4330709"
   version="1.1"
   id="svg5"
   sodipodi:docname="LabLogo.svg"
   inkscape:version="1.2.2 (1:1.2.2+202212051550+b0a8486541)"
   inkscape:export-filename="LabLogo.pdf"
   inkscape:export-xdpi="500"
   inkscape:export-ydpi="500"
   xmlns:inkscape="http://www.inkscape.org/namespaces/inkscape"
   xmlns:sodipodi="http://sodipodi.sourceforge.net/DTD/sodipodi-0.dtd"
   xmlns="http://www.w3.org/2000/svg"
   xmlns:svg="http://www.w3.org/2000/svg"
   xmlns:ns4="http://www.iki.fi/pav/software/textext/"><sodipodi:namedview
     id="namedview7"
     pagecolor="#ffffff"
     bordercolor="#666666"
     borderopacity="1.0"
     inkscape:showpageshadow="2"
     inkscape:pageopacity="0.0"
     inkscape:pagecheckerboard="0"
     inkscape:deskcolor="#d1d1d1"
     inkscape:document-units="mm"
     showgrid="true"
     inkscape:zoom="2.8284271"
     inkscape:cx="670.16045"
     inkscape:cy="275.59487"
     inkscape:window-width="1848"
     inkscape:window-height="1016"
     inkscape:window-x="1992"
     inkscape:window-y="27"
     inkscape:window-maximized="1"
     inkscape:current-layer="layer1"><inkscape:grid
       type="xygrid"
       id="grid132"
       originx="0"
       originy="0" /></sodipodi:namedview><defs
     id="defs2" /><g
     inkscape:label="Layer 1"
     inkscape:groupmode="layer"
     id="layer1"
     transform="translate(-5.4166684,-3.1770847)"><rect
       style="fill:#000000;fill-opacity:1;stroke:none;stroke-width:0.00649606;stroke-opacity:1"
       id="rect9701"
       width="0.43307087"
       height="0.43307087"
       x="5.4166684"
       y="3.1770844"
       inkscape:export-filename="../Projects/hello_irsl/media/50.png"
       inkscape:export-xdpi="115.45464"
       inkscape:export-ydpi="115.45464" /><g
       transform="matrix(0.0279368,0,0,0.0279368,5.4398769,3.2226119)"
       ns4:version="1.8.1"
       ns4:texconverter="pdflatex"
       ns4:pdfconverter="inkscape"
       ns4:text="\\textbf{IR}"
       ns4:preamble="/home/dharun/.config/inkscape/extensions/textext/default_packages.tex"
       ns4:scale="0.07919087924983985"
       ns4:alignment="middle center"
       ns4:stroke-to-path="0"
       ns4:inkscapeversion="1.2.2"
       ns4:jacobian_sqrt="0.0279368"
       style="fill:#ffffff;fill-opacity:1;stroke:#000000;stroke-width:0;stroke-opacity:1"
       id="g6733"><defs
   id="id-f85775cb-23c3-4bb4-99a5-47b305fa07f9"
   style="stroke-width:0" />
  <g
   id="id-e5579778-3a22-4808-8e71-a0c841bc0304"
   transform="translate(-149.43489,-129.24417)"
   style="fill:#ffffff;fill-opacity:1;stroke:#000000;stroke-width:0;stroke-opacity:1">
    <g
   style="fill:#ffffff;fill-opacity:1;stroke:#000000;stroke-width:0;stroke-opacity:1"
   id="id-7152a30f-098a-459b-a786-d15ab592d3e6">
      <g
   transform="translate(148.712,134.765)"
   style="fill:#ffffff;fill-opacity:1;stroke:#000000;stroke-width:0;stroke-opacity:1"
   id="g7723"><path
   style="fill:#ffffff;fill-opacity:1;stroke:#000000;stroke-width:0;stroke-opacity:1"
   d="M 2.875,-6.375 H 4.015625 V -6.84375 C 3.609375,-6.8125 2.625,-6.8125 2.171875,-6.8125 c -0.453125,0 -1.4375,0 -1.84375,-0.03125 V -6.375 H 1.46875 v 5.90625 H 0.328125 V 0 c 0.40625,-0.03125 1.390625,-0.03125 1.84375,-0.03125 0.453125,0 1.4375,0 1.84375,0.03125 V -0.46875 H 2.875 Z m 0,0"
   id="id-80c1c263-502d-4215-bac5-367050b6883d" />
      </g><g
   transform="translate(153.057,134.765)"
   style="fill:#ffffff;fill-opacity:1;stroke:#000000;stroke-width:0;stroke-opacity:1"
   id="g7726"><path
   style="fill:#ffffff;fill-opacity:1;stroke:#000000;stroke-width:0;stroke-opacity:1"
   d="M 2.828125,-3.59375 V -6.375 H 4 c 1.609375,0 1.625,0.78125 1.625,1.390625 0,0.5625 0,1.390625 -1.640625,1.390625 z m 2.65625,0.203125 C 6.640625,-3.6875 7.140625,-4.34375 7.140625,-5 c 0,-1 -1.09375,-1.84375 -2.96875,-1.84375 H 0.390625 V -6.375 H 1.46875 v 5.90625 H 0.390625 V 0 c 0.359375,-0.03125 1.328125,-0.03125 1.75,-0.03125 0.421875,0 1.390625,0 1.75,0.03125 v -0.46875 h -1.0625 v -2.765625 h 1.15625 c 0.140625,0 0.578125,0 0.890625,0.328125 0.3125,0.359375 0.3125,0.546875 0.3125,1.265625 0,0.65625 0,1.15625 0.703125,1.484375 0.4375,0.21875 1.0625,0.265625 1.46875,0.265625 1.0625,0 1.1875,-0.890625 1.1875,-1.0625 0,-0.21875 -0.140625,-0.21875 -0.234375,-0.21875 -0.203125,0 -0.21875,0.109375 -0.234375,0.234375 C 8.03125,-0.46875 7.75,-0.25 7.453125,-0.25 c -0.609375,0 -0.6875,-0.703125 -0.75,-1.125 C 6.6875,-1.484375 6.609375,-2.171875 6.59375,-2.21875 6.453125,-2.921875 5.90625,-3.234375 5.484375,-3.390625 Z m 0,0"
   id="id-87c9506a-ab9d-447c-a928-7ce4d8f47046" />
      </g></g>
  </g>
</g><g
       transform="matrix(0.0279368,0,0,0.0279368,5.5228272,3.4534351)"
       ns4:version="1.8.1"
       ns4:texconverter="pdflatex"
       ns4:pdfconverter="inkscape"
       ns4:text="\\textbf{SL}"
       ns4:preamble="/home/dharun/.config/inkscape/extensions/textext/default_packages.tex"
       ns4:scale="0.07919087924983985"
       ns4:alignment="middle center"
       ns4:stroke-to-path="0"
       ns4:inkscapeversion="1.2.2"
       ns4:jacobian_sqrt="0.0279368"
       style="fill:#ffffff;fill-opacity:1;stroke:none;stroke-width:0;stroke-opacity:1"
       id="g6779"><defs
   id="id-5e484c3a-7e18-4ef3-bc88-824b4bf92554"
   style="stroke-width:0" />
  <g
   id="id-52375705-7dbe-43d9-b2cd-1b90f613ec44"
   transform="translate(-150.09873,-129.67633)"
   style="fill:#ffffff;fill-opacity:1;stroke:none;stroke-width:0;stroke-opacity:1">
    <g
   style="fill:#ffffff;fill-opacity:1;stroke:none;stroke-width:0;stroke-opacity:1"
   id="id-5d2e6ecb-bb70-4a78-90d0-132a76eb897b">
      <g
   transform="translate(148.712,134.765)"
   style="fill:#ffffff;fill-opacity:1;stroke:none;stroke-width:0;stroke-opacity:1"
   id="g9149"><path
   style="fill:#ffffff;fill-opacity:1;stroke:none;stroke-width:0;stroke-opacity:1"
   d="M 4,-4.125 2.5625,-4.4375 C 2.15625,-4.53125 1.609375,-4.859375 1.609375,-5.46875 c 0,-0.4375 0.28125,-1.046875 1.265625,-1.046875 0.796875,0 1.8125,0.328125 2.046875,1.6875 0.03125,0.25 0.03125,0.265625 0.234375,0.265625 0.25,0 0.25,-0.046875 0.25,-0.28125 v -1.828125 c 0,-0.1875 0,-0.28125 -0.1875,-0.28125 -0.078125,0 -0.078125,0.015625 -0.1875,0.109375 l -0.453125,0.4375 C 4,-6.859375 3.34375,-6.953125 2.875,-6.953125 c -1.515625,0 -2.234375,0.96875 -2.234375,2.015625 0,0.640625 0.328125,1.09375 0.53125,1.3125 0.5,0.5 0.828125,0.5625 1.921875,0.796875 0.875,0.203125 1.046875,0.21875 1.265625,0.4375 C 4.5,-2.25 4.75,-1.984375 4.75,-1.53125 c 0,0.484375 -0.25,1.171875 -1.296875,1.171875 -0.75,0 -2.265625,-0.203125 -2.34375,-1.6875 C 1.09375,-2.21875 1.09375,-2.265625 0.875,-2.265625 c -0.234375,0 -0.234375,0.046875 -0.234375,0.28125 v 1.8125 c 0,0.1875 0,0.28125 0.171875,0.28125 0.09375,0 0.109375,-0.015625 0.1875,-0.09375 L 1.46875,-0.4375 c 0.65625,0.484375 1.578125,0.546875 1.984375,0.546875 1.65625,0 2.265625,-1.125 2.265625,-2.140625 C 5.71875,-3.125 4.921875,-3.9375 4,-4.125 Z m 0,0"
   id="id-260615db-e32d-49c4-8aa8-c3de31b6780d" />
      </g><g
   transform="translate(155.077,134.765)"
   style="fill:#ffffff;fill-opacity:1;stroke:none;stroke-width:0;stroke-opacity:1"
   id="g9152"><path
   style="fill:#ffffff;fill-opacity:1;stroke:none;stroke-width:0;stroke-opacity:1"
   d="M 6.40625,-2.734375 H 5.9375 c -0.078125,0.6875 -0.25,2.265625 -2.03125,2.265625 H 2.875 V -6.375 H 4.234375 V -6.84375 C 3.78125,-6.8125 2.703125,-6.8125 2.21875,-6.8125 c -0.4375,0 -1.453125,0 -1.828125,-0.03125 V -6.375 H 1.46875 v 5.90625 H 0.390625 V 0 H 6.09375 Z m 0,0"
   id="id-f63f76be-fc0b-4c90-959b-50515ac93e93" />
      </g></g>
  </g>
</g></g></svg>
